<svg xmlns="http://www.w3.org/2000/svg" version="1.1" xmlns:xlink="http://www.w3.org/1999/xlink" xmlns:svgjs="http://svgjs.dev/svgjs" width="493.87491" height="477.33722"><svg width="493.87491" height="477.33722" viewBox="0 0 130.67107 126.29547" version="1.1" id="SvgjsSvg1051" sodipodi:docname="M_Logo_v2.svg" inkscape:version="1.1.2 (0a00cf5339, 2022-02-04)" xmlns:inkscape="http://www.inkscape.org/namespaces/inkscape" xmlns:sodipodi="http://sodipodi.sourceforge.net/DTD/sodipodi-0.dtd" xmlns="http://www.w3.org/2000/svg" xmlns:svg="http://www.w3.org/2000/svg">
  <sodipodi:namedview id="SvgjsSodipodi:namedview1050" pagecolor="#ffffff" bordercolor="#666666" borderopacity="1.0" inkscape:pageshadow="2" inkscape:pageopacity="0.0" inkscape:pagecheckerboard="0" inkscape:document-units="mm" showgrid="false" showguides="false" inkscape:zoom="0.96605536" inkscape:cx="513.9457" inkscape:cy="226.17751" inkscape:window-width="1920" inkscape:window-height="1018" inkscape:window-x="0" inkscape:window-y="36" inkscape:window-maximized="1" inkscape:current-layer="layer2" units="px" fit-margin-top="0" fit-margin-left="0" fit-margin-right="0" fit-margin-bottom="0">
    <inkscape:grid type="xygrid" id="SvgjsInkscape:grid1049" originx="-39.143227" originy="-70.713774"></inkscape:grid>
  </sodipodi:namedview>
  <defs id="SvgjsDefs1048"></defs>
  <g inkscape:groupmode="layer" id="SvgjsG1047" inkscape:label="Layer 3" transform="translate(-39.143227,-70.713776)">
    <ellipse style="display:inline;fill:#005757;fill-opacity:1;fill-rule:evenodd;stroke-width:0.495888" id="SvgjsEllipse1046" cx="104.47876" cy="133.86151" rx="65.335533" ry="63.147736"></ellipse>
  </g>
  <g inkscape:groupmode="layer" id="SvgjsG1045" inkscape:label="Layer 2" style="display:inline" transform="translate(-39.143227,-70.713776)">
    <ellipse style="display:inline;fill:#e6e6e6;stroke-width:0.455533" id="SvgjsEllipse1044" cx="104.31046" cy="-133.88838" transform="scale(1,-1)" rx="57.884312" ry="55.946022"></ellipse>
  </g>
  <g inkscape:groupmode="layer" id="SvgjsG1043" inkscape:label="Layer 4" transform="translate(-39.143227,-70.713776)">
    <path id="SvgjsPath1042" style="display:inline;opacity:0.26;fill:#008080;stroke-width:0.535752" d="m 161.16831,122.98579 c -0.1508,-0.11706 -0.26831,-0.21148 -0.42489,-0.31633 -0.17996,-0.12049 -0.36408,-0.2331 -0.55168,-0.33796 -0.18759,-0.10466 -0.37838,-0.20225 -0.57337,-0.29162 -0.19499,-0.0894 -0.39379,-0.17082 -0.59602,-0.24524 -0.20226,-0.0743 -0.40836,-0.14184 -0.6177,-0.20172 -0.20937,-0.0599 -0.42207,-0.11134 -0.63841,-0.15671 -0.21632,-0.0454 -0.4359,-0.0845 -0.65907,-0.11572 -0.22316,-0.0315 -0.44991,-0.0557 -0.67977,-0.0736 -0.22985,-0.0191 -0.46307,-0.0296 -0.69946,-0.0339 -0.23642,-0.006 -0.47539,-0.002 -0.71819,0.006 -0.24282,0.008 -0.48882,0.0238 -0.7379,0.0452 -0.24907,0.0212 -0.50141,0.0473 -0.75662,0.0805 -0.25519,0.0332 -0.51414,0.0722 -0.77532,0.11725 -0.26118,0.0452 -0.52505,0.0961 -0.79208,0.1527 -0.26701,0.0566 -0.53708,0.11896 -0.80981,0.18664 -0.54545,0.13555 -1.10147,0.29338 -1.66888,0.47148 -0.56741,0.17806 -1.14566,0.37619 -1.73389,0.59413 -0.58822,0.21808 -1.18705,0.45636 -1.79499,0.71133 -0.60792,0.255 -1.22464,0.52703 -1.85113,0.81625 -0.62647,0.28922 -1.26238,0.59505 -1.90629,0.91573 -0.64393,0.3207 -1.29635,0.65632 -1.95656,1.00567 -0.66021,0.34934 -1.32845,0.71222 -2.00384,1.08742 -0.67538,0.37519 -1.35775,0.76274 -2.04717,1.16101 -0.68943,0.39826 -1.38524,0.80789 -2.08758,1.22642 -0.70233,0.41854 -1.41089,0.84626 -2.12501,1.28228 -1.42824,0.87211 -2.879,1.77564 -4.34756,2.70086 -2.93712,1.85053 -5.9465,3.786 -8.99066,5.71513 -1.52208,0.96457 -3.05267,1.92731 -4.58793,2.87801 -1.53528,0.95071 -3.07511,1.88855 -4.61453,2.80304 -0.76971,0.45726 -1.53922,0.90916 -2.30827,1.35316 -0.76903,0.44403 -1.53705,0.8802 -2.30429,1.30819 -0.76728,0.42797 -1.53408,0.84725 -2.29842,1.2564 -0.76432,0.40916 -1.5263,0.80892 -2.28658,1.19644 -0.760283,0.38753 -1.518673,0.76245 -2.273773,1.1256 -0.75509,0.3631 -1.50725,0.71335 -2.25604,1.04924 -0.74879,0.33593 -1.49401,0.65752 -2.23536,0.96345 -0.74133,0.30588 0,0 -2.21169,0.86938 -0.7278,0.2861 -3.0273,0.89051 -4.40063,1.03214 -2.37317,0.24474 -3.99172,0.53343 -5.94826,0.4624 -23.01318,-0.83539 -34.268261,-19.00499 -34.396354,-18.97044 1.145408,30.08323 31.180074,58.63057 65.155467,52.59096 32.12573,-3.97918 50.68326,-30.54543 50.52819,-54.40715 -0.0242,-3.72585 -1.01768,-12.01278 -1.01768,-12.01278 z" sodipodi:nodetypes="cscsssssccscssssscssssssssssssssssssssssccscc"></path>
  </g>
  <g inkscape:label="Layer 1" inkscape:groupmode="layer" id="SvgjsG1041" style="display:inline" transform="translate(-39.143227,-70.713776)">
    <path style="display:inline;fill:#ff8a11;fill-opacity:0.600274;stroke:none;stroke-width:0.900841px;stroke-linecap:butt;stroke-linejoin:miter;stroke-opacity:1" d="m 95.881647,148.89587 21.907983,-50.806733 3.99399,-0.0457 19.06473,42.472802 3.43083,-9.10328 11.49796,25.51321 h -22.69831 l -13.11457,-29.25562 -16.11211,39.88417 z" id="SvgjsPath1040" sodipodi:nodetypes="cccccccccc"></path>
    <path style="display:inline;fill:#bf5700;fill-opacity:0.829241;stroke:none;stroke-width:0.64897px;stroke-linecap:butt;stroke-linejoin:miter;stroke-opacity:1" d="m 82.574327,97.649861 4.206107,0.04923 6.418953,14.53664 -21.15381,44.69044 H 56.40896 Z" id="SvgjsPath1039" sodipodi:nodetypes="cccccc"></path>
    <path style="display:inline;fill:#999999;stroke:none;stroke-width:0.535304px;stroke-linecap:butt;stroke-linejoin:miter;stroke-opacity:1" d="m 138.65167,144.01431 -5.57284,12.91186 h 14.62781 8.0705 l -11.49796,-25.51361 z" id="SvgjsPath1038" sodipodi:nodetypes="cccccc"></path>
    <path style="display:inline;opacity:0.9;fill:#008080;stroke:none;stroke-width:0.656316px;stroke-linecap:butt;stroke-linejoin:miter;stroke-opacity:1" d="m 82.574327,97.649861 -4.63524,10.757909 7.90304,19.35488 -5.67898,12.01367 h 7.51904 l 2.18354,-4.92757 1.1057,2.52721 12.880723,30.17876 6.52836,-16.17704 -23.600076,-53.67859 z" id="SvgjsPath1037" sodipodi:nodetypes="ccccccccccc"></path>
  </g>
</svg><style>@media (prefers-color-scheme: light) { :root { filter: none; } }
<!-- @media (prefers-color-scheme: dark) { :root { filter: invert(100%); } } -->
</style></svg>